<svg height="300px" width="300px" fill="#000000" xmlns="http://www.w3.org/2000/svg" xmlns:xlink="http://www.w3.org/1999/xlink" version="1.1" x="0px" y="0px" viewBox="0 0 100 100" enable-background="new 0 0 100 100" xml:space="preserve"><g><path d="M28.537,32.125c4.75,3.221,11.211,1.979,14.432-2.771c2.301-3.393,0.105-5.73-1.461-3.42   c-3.498,5.158-10.516,6.508-15.676,3.01c-0.201-0.137-0.385-0.287-0.576-0.436C26.023,29.914,27.119,31.164,28.537,32.125z"/><path d="M71.463,32.125c1.416-0.961,2.514-2.211,3.281-3.617c-0.191,0.148-0.375,0.299-0.576,0.436   c-5.16,3.498-12.178,2.148-15.676-3.01c-1.566-2.311-3.762,0.027-1.461,3.42C60.252,34.104,66.711,35.346,71.463,32.125z"/><path d="M50,2.25C23.67,2.25,2.25,23.671,2.25,50S23.67,97.75,50,97.75c26.328,0,47.75-21.421,47.75-47.75S76.328,2.25,50,2.25z    M50,87.75c-20.816,0-37.75-16.935-37.75-37.75S29.184,12.25,50,12.25c20.814,0,37.75,16.935,37.75,37.75S70.814,87.75,50,87.75z"/><polygon points="59.084,70.962 54.535,62.961 49.992,70.959 45.449,62.958 40.908,70.959 36.93,63.952 34.322,65.434    40.908,77.035 45.449,69.036 49.99,77.035 54.537,69.033 59.084,77.032 65.678,65.435 63.07,63.952  "/><polygon points="30.91,38.037 28.789,40.158 38.656,50.026 24.773,52.521 25.305,55.475 44.836,51.964  "/><polygon points="71.211,40.158 69.09,38.037 55.162,51.964 74.695,55.475 75.227,52.521 61.342,50.026  "/></g></svg>